<?xml version="1.0" standalone="no"?>
<!DOCTYPE svg PUBLIC "-//W3C//DTD SVG 20010904//EN"
 "http://www.w3.org/TR/2001/REC-SVG-20010904/DTD/svg10.dtd">
<svg version="1.0" xmlns="http://www.w3.org/2000/svg"
 width="70.000000pt" height="70.000000pt" viewBox="0 0 70.000000 70.000000"
 preserveAspectRatio="xMidYMid meet">
<metadata>
Created by potrace 1.14, written by Peter Selinger 2001-2017
</metadata>
<g transform="translate(0.000000,70.000000) scale(0.100000,-0.100000)"
fill="#000000" stroke="none">
<path d="M262 622 c-220 -79 -238 -316 -32 -423 64 -34 194 -34 261 -2 125 62
179 182 130 288 -56 120 -225 184 -359 137z m223 -31 c52 -23 111 -89 125
-141 21 -77 -16 -165 -86 -210 -139 -88 -332 -48 -400 82 -19 36 -18 122 2
164 16 33 88 104 106 104 15 0 9 -80 -7 -86 -8 -4 -15 -14 -15 -23 1 -14 2
-14 11 2 5 9 19 17 29 17 10 0 24 -8 29 -17 6 -10 11 -13 11 -7 0 6 -9 19 -20
29 -13 12 -20 31 -20 56 0 36 2 38 43 48 54 12 141 4 192 -18z"/>
<path d="M230 470 c0 -5 6 -10 14 -10 8 0 18 5 21 10 3 6 -3 10 -14 10 -12 0
-21 -4 -21 -10z"/>
<path d="M185 400 c-4 -6 -17 -10 -30 -10 -26 0 -41 -15 -25 -25 5 -3 10 -16
10 -29 0 -29 27 -54 68 -62 17 -4 29 -10 26 -15 -3 -5 -1 -9 5 -9 5 0 13 5 16
10 9 15 212 13 219 -2 5 -10 7 -10 12 0 3 6 14 12 23 12 29 0 71 39 71 65 0
13 5 25 12 27 19 7 -1 28 -27 28 -13 0 -26 4 -30 10 -8 12 -342 12 -350 0z"/>
<path d="M222 125 c0 -16 2 -24 5 -17 2 6 10 9 16 5 7 -5 28 -8 48 -8 34 0 36
1 26 23 -13 27 -19 28 -35 2 -15 -24 -34 -18 -25 8 6 14 4 15 -9 4 -13 -10
-17 -10 -21 0 -3 7 -5 0 -5 -17z"/>
<path d="M335 140 c-7 -12 0 -24 16 -26 5 -1 12 -3 17 -4 14 -6 82 -5 82 1 0
3 -6 13 -13 24 -13 17 -15 17 -30 -6 -15 -20 -17 -21 -17 -5 0 11 -5 16 -14
13 -7 -3 -18 -1 -24 5 -6 6 -12 6 -17 -2z"/>
<path d="M460 123 c0 -16 4 -23 8 -17 4 6 15 13 25 17 22 8 13 27 -14 27 -14
0 -19 -7 -19 -27z"/>
</g>
</svg>
